<svg xmlns="http://www.w3.org/2000/svg" width="1828.742" height="1337.635" viewBox="0 0 1828.742 1337.635">
  <g id="Done" transform="translate(-600.9 -466.6)">
    <g id="color_shadow">
      <g id="Group_1672" data-name="Group 1672">
        <path id="Path_6079" data-name="Path 6079" d="M2400.8,631.7a213.515,213.515,0,0,1,6.1-143.2c-1.9.3-3.7.7-5.6,1,0,0-3.2.7-3.3.7-.9.2-1.7.4-2.6.6-24.4,6.1-47.7,15.8-71.1,24.9-85.3,33.4-177.9,53-269.6,52.9-41,0-83.3-2.5-123.5-10.8a221.657,221.657,0,0,1-41.1-12.4l8.5,274.1c27.9-16.8,72.4-21.1,103.8-12.4S2063,831,2094,840.7a276.03,276.03,0,0,0,170.3-2c33.4-11.3,64.5-29,98-40,17.1-5.6,38.7-8.3,50.7,5.1,8.4-34.5,16.9-70.2,10.3-105.1C2418.8,675.6,2407.9,654.2,2400.8,631.7Z" fill="#dafadd"/>
      </g>
    </g>
    <g id="color_outline">
      <g id="Group_1673" data-name="Group 1673">
        <path id="Path_6080" data-name="Path 6080" d="M1889.5,528.1c126.4,41.4,264.8,15.2,391.5-25.1,44-14,88.2-29.8,134.3-32.4-25.7,49-31,108.4-14.4,161.2,7.1,22.5,18,44,22.4,67.2,6.6,34.9-1.8,70.6-10.3,105.1-12.1-13.4-33.6-10.7-50.7-5.1-33.6,10.9-64.6,28.6-98,40a276.772,276.772,0,0,1-170.3,2c-31.1-9.7-60.2-24.9-91.6-33.6s-66.8-10.1-94.7,6.7" fill="none" stroke="#00b60f" stroke-linecap="round" stroke-linejoin="round" stroke-miterlimit="10" stroke-width="8"/>
        <path id="Path_6081" data-name="Path 6081" d="M2233,611.9a2.174,2.174,0,0,0-3-.1L2116.8,711l-62.3-49.3a2.286,2.286,0,0,0-3,.2h0a2.286,2.286,0,0,0-.2,3l56.9,71.9,8.6,10.9,9.6-10.9,106.8-121.9A2.293,2.293,0,0,0,2233,611.9Z" fill="#00b60f"/>
      </g>
    </g>
    <g id="shadow">
      <g id="Group_1674" data-name="Group 1674">
        <path id="Path_6082" data-name="Path 6082" d="M733.8,983.8c11.9,19.5-12.4,61.4,25.9,60,20.9-.8,51.6-51.5,66.7-63.3,54.7-42.5,118.9-44,160.6-107,45.6-68.8,26.4-151.7,49.4-227.2,9.9-32.6,25.9-63.7,49.8-88.2,11.5-11.8,53.3-30.4,30.5-47.4-34.9-25.9-114.6,60-130.5,82.1-38.3,53.7-50.4,132-110.8,167.2-61.4,35.8-130.9,30.1-178.9,91.3-19.5,25-43,67.3-32.8,100.2,4,12.7,11.3,22.2,23.2,28.2C699.1,985.9,727.7,973.9,733.8,983.8Z" fill="#ebf2ff"/>
        <path id="Path_6083" data-name="Path 6083" d="M1087.4,587.4c-18.2,24.8-33.1,71.1,4.4,87.1,36.7,15.6,80.4-26.9,98.4-53.8,17.9-26.6,36.8-74.5-4.3-89.1C1150.1,518.9,1106.2,561.8,1087.4,587.4Z" fill="#ebf2ff"/>
        <path id="Path_6084" data-name="Path 6084" d="M1233.2,545.9c8.2,23.7,61.4,110.8,72.6,44.5,3.1-18.7-10.9-41.9-23.8-53.8C1271.4,527,1219.9,507.5,1233.2,545.9Z" fill="#ebf2ff"/>
        <path id="Path_6085" data-name="Path 6085" d="M1155,752.3c29.8,21.9,43.6-21.4,17.8-39.2C1137.4,688.7,1125,730.4,1155,752.3Z" fill="#ebf2ff"/>
        <path id="Path_6086" data-name="Path 6086" d="M1300.3,705c-19.7,14.9-19.1,50.5,10.2,32.4C1329.5,725.7,1322.1,688.6,1300.3,705Z" fill="#ebf2ff"/>
        <path id="Path_6087" data-name="Path 6087" d="M1237.8,824.7c17.3,4,46.3-16.9,16.9-26C1238.9,793.8,1216.1,819.7,1237.8,824.7Z" fill="#ebf2ff"/>
        <path id="Path_6088" data-name="Path 6088" d="M1344.9,1407.8c23.3-25.1-3.7-45.7-28.8-46.2-24.5-.5-57.4,12.1-83.9,15.5-50.6,6.5-155.6,6.9-180.4,61.6-33.6,74.3,62.1,64.4,101.1,47.9C1208.9,1462.8,1302.7,1453.3,1344.9,1407.8Z" fill="#ebf2ff"/>
        <path id="Path_6089" data-name="Path 6089" d="M917.6,1430.6c-38.7-14.3-74.6-31-109.4-52.8-19.3-12.1-71.7-67.5-86.7-56.3-24.8,18.5,83.9,85.4,98.8,93.4,21.9,11.7,50,28.3,74.8,33.6,8.7,1.9,21.3,12.5,28.1,1.1C927.3,1442.7,927.4,1434.2,917.6,1430.6Z" fill="#ebf2ff"/>
        <path id="Path_6090" data-name="Path 6090" d="M971.9,984.1c-63.6,27.1-121.7,48.6-152.2,114.6-13.8,29.7-79.7,138.4-11.9,120.3,49.6-13.2,98.9-62.8,128.3-102.7C944.4,1105,1013.9,966.2,971.9,984.1Z" fill="#ebf2ff"/>
        <path id="Path_6091" data-name="Path 6091" d="M1482.3,1126.8c64.8,27,68.5-3.7,39.5-55-24.7-43.7-61.2-72-107.9-90.6-54-21.6-46.7,12.8-26.2,53.3C1408.1,1074.9,1440.2,1109.2,1482.3,1126.8Z" fill="#ebf2ff"/>
        <path id="Path_6092" data-name="Path 6092" d="M1760.3,1479.5c-75.2,29.4-91.6,127.2-185.6,64.2-67.4-45.2-88.2-122-92.5-198.9-2.3-40.8,15.7-209.9-39.6-230-37.3-13.5-8.4,26.7-4.2,37.8,4.9,13.1,4.9,31.7,7,45.3,8,51.7-.2,78-5.3,130.7-7.8,81.7-35.5,139.1,27.3,204.4,41.5,43.2,123.3,125.5,190.5,106.3,38.8-11.1,62-49.6,82-81.4C1741.7,1555,1794.8,1466,1760.3,1479.5Z" fill="#ebf2ff"/>
        <path id="Path_6093" data-name="Path 6093" d="M787.1,1579.9c-9.1,11.4-71.6,103.3-21.9,77.9,4.8-2.4,38.8-54.9,39.4-60.4C805.2,1590.9,801.8,1561.3,787.1,1579.9Z" fill="#ebf2ff"/>
        <path id="Path_6094" data-name="Path 6094" d="M999.2,1590c-13.1-25.2-18.1,12.8-17.1,21,1.3,10.2,24.8,75.1,31.3,80C1060.4,1727.1,1007.5,1606,999.2,1590Z" fill="#ebf2ff"/>
        <path id="Path_6095" data-name="Path 6095" d="M1021.5,1574.2c-19.2-20-14.7,16.1-11.3,24.1,4.1,9.5,43.1,60.5,51.1,63.8C1116.2,1684.5,1033.9,1587.1,1021.5,1574.2Z" fill="#ebf2ff"/>
        <path id="Path_6096" data-name="Path 6096" d="M1817.2,1078.5c-35.3,9.7-44.7,132.7-4.4,129.1C1856.9,1203.7,1838.6,1072.6,1817.2,1078.5Z" fill="#ebf2ff"/>
        <path id="Path_6097" data-name="Path 6097" d="M1969,1128.8c-7.1-7.1-15.7-1.6-21.2,3.4,5-5.3,25.7-21.7,24.6-31.2-1-8.8-11.4-16.6-19.6-9.8,6.9-8.5,6.2-21.9-6.9-23.3-15.1-1.6-47.1,50.5-54.5,59.5-12.5,15.3-29.8,27.2-15.3,43.2,3.9,4.3,30,5.7,35.2.1C1911.1,1203.5,1988.6,1148.3,1969,1128.8Z" fill="#ebf2ff"/>
        <path id="Path_6098" data-name="Path 6098" d="M1876.2,1060.4c.8,22.8,19.4,7.1,24.7,0,7.4-10-2.2-57.8-2.6-69.1q-3-80.55-6-161.2-2.55-69-5.1-138.1c-1.2-30.9-2.3-61.9-3.5-92.8-.6-15.2,5.7-60.6-2.6-70.2-31.6-36.6-23.3,36.8-22.5,57.6q2.85,74.85,5.6,149.6Q1870.2,898.35,1876.2,1060.4Z" fill="#ebf2ff"/>
        <path id="Path_6099" data-name="Path 6099" d="M1891.7,1176.1c-25.4,0-8.4,187.7,6.6,184.7C1922.4,1356,1910.5,1176.1,1891.7,1176.1Z" fill="#ebf2ff"/>
        <path id="Path_6100" data-name="Path 6100" d="M1155.1,1001.1c-18.8-3.5-5.5,15.3-2.7,18.9.2.3,50.9,32.5,52.1,32.9,24.9,8.1,13-12,4.9-23.5C1198.4,1014,1172.8,1004.4,1155.1,1001.1Z" fill="#ebf2ff"/>
        <path id="Path_6101" data-name="Path 6101" d="M1393.5,1711.8c13.1-17.6-6.6-79-7.8-105.7-29.6-17.8-43.8,71.6-48,92.3-5.9,28.9-16.4,120.2,44.2,103.9C1433,1788.5,1353.8,1765.4,1393.5,1711.8Z" fill="#ebf2ff"/>
      </g>
    </g>
    <g id="outline">
      <g id="Group_1676" data-name="Group 1676">
        <path id="Path_6102" data-name="Path 6102" d="M1205.3,696.3c.1,3.7.1,7.5.2,11.2a16.054,16.054,0,0,0,.5-11.8" fill="none" stroke="#003188" stroke-linecap="round" stroke-linejoin="round" stroke-miterlimit="10" stroke-width="7"/>
        <path id="Path_6103" data-name="Path 6103" d="M1281.1,689c-.2,3.5-.5,7.1-.7,10.6a21.444,21.444,0,0,0,1.4-9.7" fill="none" stroke="#003188" stroke-linecap="round" stroke-linejoin="round" stroke-miterlimit="10" stroke-width="7"/>
        <path id="Path_6104" data-name="Path 6104" d="M1182.4,675.8a51.927,51.927,0,0,1,36.7-4.2" fill="none" stroke="#003188" stroke-linecap="round" stroke-linejoin="round" stroke-miterlimit="10" stroke-width="7"/>
        <path id="Path_6105" data-name="Path 6105" d="M1299.4,658.2c-7.5.2-15.1.4-22.3,2.3-7.2,2-14.2,5.9-18.3,12.2-5.3,8.1-5.2,18.7-2.4,28,2.8,9.2,8.1,17.5,12.5,26.1.8,1.6,1.7,3.4,1.4,5.2a8.265,8.265,0,0,1-2.1,3.9,64.806,64.806,0,0,1-11.3,10.9" fill="none" stroke="#003188" stroke-linecap="round" stroke-linejoin="round" stroke-miterlimit="10" stroke-width="7"/>
        <path id="Path_6106" data-name="Path 6106" d="M1221.2,763.1a33.6,33.6,0,0,0,20.7,8.9,46.287,46.287,0,0,0,22.3-4.2" fill="none" stroke="#003188" stroke-linecap="round" stroke-linejoin="round" stroke-miterlimit="10" stroke-width="7"/>
        <path id="Path_6107" data-name="Path 6107" d="M1119.7,691.7a24.956,24.956,0,0,0-13.9-4.7c-12.2-.5-24.2,6.9-29.8,17.8s-4.7,24.6,1.7,35,17.9,17.4,30,18.9" fill="none" stroke="#003188" stroke-linecap="round" stroke-linejoin="round" stroke-miterlimit="10" stroke-width="7"/>
        <path id="Path_6108" data-name="Path 6108" d="M1096.1,713a35.86,35.86,0,0,1,16.6,15.6" fill="none" stroke="#003188" stroke-linecap="round" stroke-linejoin="round" stroke-miterlimit="10" stroke-width="7"/>
        <path id="Path_6109" data-name="Path 6109" d="M1101.8,765a1084.519,1084.519,0,0,1,4,162.2" fill="none" stroke="#003188" stroke-linecap="round" stroke-linejoin="round" stroke-miterlimit="10" stroke-width="7"/>
        <path id="Path_6110" data-name="Path 6110" d="M1319.8,659.2a347.959,347.959,0,0,1-21.5,143.3c-8,21.3-20,43.6-41.4,51.4-16.1,5.9-34.1,2-50.1-4.2-21.9-8.5-42.3-21.7-56.6-40.3" fill="none" stroke="#003188" stroke-linecap="round" stroke-linejoin="round" stroke-miterlimit="10" stroke-width="7"/>
        <path id="Path_6111" data-name="Path 6111" d="M1283.3,832.3c0,29,1.1,63.5,2.9,95" fill="none" stroke="#003188" stroke-linecap="round" stroke-linejoin="round" stroke-miterlimit="10" stroke-width="7"/>
        <path id="Path_6112" data-name="Path 6112" d="M1228.6,582.5c-14.3,47.2-52.5,86.5-99.3,102.1" fill="none" stroke="#003188" stroke-linecap="round" stroke-linejoin="round" stroke-miterlimit="10" stroke-width="7"/>
        <path id="Path_6113" data-name="Path 6113" d="M1211.1,579.2c-16.3,37.1-49.2,64-82.4,87.3" fill="none" stroke="#003188" stroke-linecap="round" stroke-linejoin="round" stroke-miterlimit="10" stroke-width="7"/>
        <path id="Path_6114" data-name="Path 6114" d="M1080.3,776.8a102.086,102.086,0,0,1-25.7-30.9c-10.8-19.9-14.9-42.8-15.2-65.4-.6-44.7,13.8-90.4,43.7-123.6s76.2-52.6,120.4-45.9a98.7,98.7,0,0,0,13.3,1.7c5,.1,9.9-.9,14.9-1.1,15.4-.7,30.3,5.9,42.9,14.7,36.9,25.9,57.3,73.6,50.4,118.3" fill="none" stroke="#003188" stroke-linecap="round" stroke-linejoin="round" stroke-miterlimit="10" stroke-width="7"/>
        <path id="Path_6115" data-name="Path 6115" d="M1224.2,525c7.9,49.5,40.8,94.3,85.5,116.8" fill="none" stroke="#003188" stroke-linecap="round" stroke-linejoin="round" stroke-miterlimit="10" stroke-width="7"/>
        <path id="Path_6116" data-name="Path 6116" d="M1255.5,552.5a149.15,149.15,0,0,0,54.3,63.4" fill="none" stroke="#003188" stroke-linecap="round" stroke-linejoin="round" stroke-miterlimit="10" stroke-width="7"/>
        <path id="Path_6117" data-name="Path 6117" d="M1087,586.1c-5.9,3.6-9.4,10-12.4,16.2a221.747,221.747,0,0,0-13.7,37.8" fill="none" stroke="#003188" stroke-linecap="round" stroke-linejoin="round" stroke-miterlimit="10" stroke-width="7"/>
        <path id="Path_6118" data-name="Path 6118" d="M1086.2,791a226.207,226.207,0,0,1-27.8,62.5" fill="none" stroke="#003188" stroke-linecap="round" stroke-linejoin="round" stroke-miterlimit="10" stroke-width="7"/>
        <path id="Path_6119" data-name="Path 6119" d="M1090.2,811.4a490.524,490.524,0,0,0-9.6,50.9" fill="none" stroke="#003188" stroke-linecap="round" stroke-linejoin="round" stroke-miterlimit="10" stroke-width="7"/>
        <path id="Path_6120" data-name="Path 6120" d="M1223.1,923.3a79.407,79.407,0,0,1-1.4,24.3" fill="none" stroke="#003188" stroke-linecap="round" stroke-linejoin="round" stroke-miterlimit="10" stroke-width="7"/>
        <path id="Path_6121" data-name="Path 6121" d="M1150.2,809.4c11.4,23,25.7,46.5,48.1,60s51.3,18.3,75.9,8.9a11.238,11.238,0,0,0,4.9-3c1.4-1.9,1.5-4.3,1.6-6.7.1-8.4.3-16.8.4-25.3-13.6,16.3-38.9,18.4-60.1,13.9-23.7-4.9-45.5-20.7-62.9-36.9" fill="#003188" stroke="#003188" stroke-linecap="round" stroke-linejoin="round" stroke-miterlimit="10" stroke-width="7"/>
        <path id="Path_6122" data-name="Path 6122" d="M1091.4,940.9Q998.7,973,907.9,1010c-24.8,10.1-50.3,21-68,41-15.9,17.9-24,41.2-31.5,63.9A4318.549,4318.549,0,0,0,658,1704.3" fill="none" stroke="#003188" stroke-linecap="round" stroke-linejoin="round" stroke-miterlimit="10" stroke-width="7"/>
        <path id="Path_6123" data-name="Path 6123" d="M834.9,1748.2l128-458.9c1.9-7-8.1-10.4-10.9-3.7a53.04,53.04,0,0,0-3.4,14c-9.6,94.6,32.1,189.7,17.4,283.6-11.2,71.4-54.2,136.1-57.6,208.3" fill="none" stroke="#003188" stroke-linecap="round" stroke-linejoin="round" stroke-miterlimit="10" stroke-width="7"/>
        <path id="Path_6124" data-name="Path 6124" d="M1435.8,1122.2c37.7,85,18.4,183.6-6.6,273.2s-55.4,182.3-37.8,273.7c3.2,16.6,7.9,34.2,1.7,49.9-2.8,7.1-7.6,13.3-9.9,20.5-4.1,12.7,1.1,27.9,12.1,35.5" fill="none" stroke="#003188" stroke-linecap="round" stroke-linejoin="round" stroke-miterlimit="10" stroke-width="7"/>
        <path id="Path_6125" data-name="Path 6125" d="M1297.6,941.4q45,16.95,90.1,33.9c31.3,11.8,63.3,23.9,89.2,45.2,36.1,29.6,56.7,73.6,74.6,116.6a1988.515,1988.515,0,0,1,88.6,263.8c5,19.2,7,44.8-10.7,53.7-15.7-22.5-.1-52.9,15.9-75.1a1526.146,1526.146,0,0,1,141.9-169.9" fill="none" stroke="#003188" stroke-linecap="round" stroke-linejoin="round" stroke-miterlimit="10" stroke-width="7"/>
        <path id="Path_6126" data-name="Path 6126" d="M1423.8,1467.3a985.4,985.4,0,0,0,116.4,126.9c33.8,30.9,77.6,61.4,121.8,49.2,38.3-10.6,60.8-49,79.3-84.2,40.5-76.9,103.1-193.2,143.6-270.1" fill="none" stroke="#003188" stroke-linecap="round" stroke-linejoin="round" stroke-miterlimit="10" stroke-width="7"/>
        <path id="Path_6127" data-name="Path 6127" d="M1443.2,1416.5a2149.985,2149.985,0,0,1,186.9-140.9" fill="none" stroke="#003188" stroke-linecap="round" stroke-linejoin="round" stroke-miterlimit="10" stroke-width="7"/>
        <path id="Path_6128" data-name="Path 6128" d="M1445.8,1452.9a914.813,914.813,0,0,1,204.3-137.4" fill="none" stroke="#003188" stroke-linecap="round" stroke-linejoin="round" stroke-miterlimit="10" stroke-width="7"/>
        <path id="Path_6129" data-name="Path 6129" d="M1820.1,1262.1c-7.4,14.6-14.9,29.2-22.3,43.8" fill="none" stroke="#003188" stroke-linecap="round" stroke-linejoin="round" stroke-miterlimit="10" stroke-width="7"/>
        <path id="Path_6130" data-name="Path 6130" d="M1090.8,1422.8c42.7,14.3,88.4-4.6,131.6-17.2a485.551,485.551,0,0,1,108.3-18.7" fill="none" stroke="#003188" stroke-linecap="round" stroke-linejoin="round" stroke-miterlimit="10" stroke-width="7"/>
        <path id="Path_6131" data-name="Path 6131" d="M1278.6,1409.1a499.569,499.569,0,0,0-115.7,54.5" fill="none" stroke="#003188" stroke-linecap="round" stroke-linejoin="round" stroke-miterlimit="10" stroke-width="7"/>
        <path id="Path_6132" data-name="Path 6132" d="M1464.5,1170.2a46.524,46.524,0,0,1,10.1-30" fill="none" stroke="#003188" stroke-linecap="round" stroke-linejoin="round" stroke-miterlimit="10" stroke-width="7"/>
        <path id="Path_6133" data-name="Path 6133" d="M709.6,1344a581.593,581.593,0,0,0,179.9,96.9" fill="none" stroke="#003188" stroke-linecap="round" stroke-linejoin="round" stroke-miterlimit="10" stroke-width="7"/>
        <path id="Path_6134" data-name="Path 6134" d="M702.4,1299.7a1311.086,1311.086,0,0,0,192,118.8" fill="none" stroke="#003188" stroke-linecap="round" stroke-linejoin="round" stroke-miterlimit="10" stroke-width="7"/>
        <path id="Path_6135" data-name="Path 6135" d="M994.5,1600.9a288.241,288.241,0,0,1,39.7,79.4" fill="none" stroke="#003188" stroke-linecap="round" stroke-linejoin="round" stroke-miterlimit="10" stroke-width="7"/>
        <path id="Path_6136" data-name="Path 6136" d="M1008.6,1586.6a579.066,579.066,0,0,0,58.6,60.7" fill="none" stroke="#003188" stroke-linecap="round" stroke-linejoin="round" stroke-miterlimit="10" stroke-width="7"/>
        <path id="Path_6137" data-name="Path 6137" d="M762.1,1641.5c9.2-13.4,18.4-26.9,27.6-40.3" fill="none" stroke="#003188" stroke-linecap="round" stroke-linejoin="round" stroke-miterlimit="10" stroke-width="7"/>
        <path id="Path_6138" data-name="Path 6138" d="M1104.7,942.3q64.95,40.8,131,79.6,26.7-39.3,53.4-78.7" fill="none" stroke="#003188" stroke-linecap="round" stroke-linejoin="round" stroke-miterlimit="10" stroke-width="7"/>
        <path id="Path_6139" data-name="Path 6139" d="M1163.1,1006.1a430.086,430.086,0,0,1,52.3,35.1" fill="none" stroke="#003188" stroke-linecap="round" stroke-linejoin="round" stroke-miterlimit="10" stroke-width="7"/>
        <path id="Path_6140" data-name="Path 6140" d="M1804,1212.8c-20.4-31.1-16.7-72.8-2.4-107.2,9.8-23.5,24.1-45.3,30.3-70a112.459,112.459,0,0,0,2.9-37c-.6-6.3-1.6-12.9.4-18.9s8.4-11.2,14.4-9.3c4.3,1.3,6.9,5.6,8.9,9.6a134.309,134.309,0,0,1,8.4,96.1" fill="none" stroke="#003188" stroke-linecap="round" stroke-linejoin="round" stroke-miterlimit="10" stroke-width="7"/>
        <path id="Path_6141" data-name="Path 6141" d="M1888.1,1074.7c11.7-13.7,23.9-27.8,40.4-34.9,5.8-2.5,14.1-3.2,17,2.4,1.5,2.9.9,6.5-.1,9.7-4.1,13.9-12.6,25.9-21.4,37.4-6.9,9.1-14.1,18-21.5,26.7-9.5,11.1-19.6,22.1-32.6,28.8-2.6,1.3-5.8,2.4-8.3,1-1.8-1-2.7-3.1-3.1-5.1-1.7-7.3,1.3-14.8,4.8-21.5a149.816,149.816,0,0,1,17.7-26.8" fill="none" stroke="#003188" stroke-linecap="round" stroke-linejoin="round" stroke-miterlimit="10" stroke-width="7"/>
        <path id="Path_6142" data-name="Path 6142" d="M1868.5,1148.1a27.729,27.729,0,0,0-7.8,18.5,9.878,9.878,0,0,0,1.4,6.1c2,2.9,6.1,3.6,9.4,2.6s6.1-3.3,8.8-5.5c26.7-22.6,53.8-45.8,71.9-75.7,3.8-6.3,7.3-13.2,7.3-20.6s-4.5-15.2-11.6-16.8" fill="none" stroke="#003188" stroke-linecap="round" stroke-linejoin="round" stroke-miterlimit="10" stroke-width="7"/>
        <path id="Path_6143" data-name="Path 6143" d="M1887.6,1167.9c1.1,4.7,6.6,7.3,11.4,6.9,4.8-.5,9.1-3.2,13-6,21.9-15.2,41.7-33.9,55.8-56.4,3.2-5.1,6.2-10.9,5.4-16.8-.8-6-7.3-11.3-12.8-8.8" fill="none" stroke="#003188" stroke-linecap="round" stroke-linejoin="round" stroke-miterlimit="10" stroke-width="7"/>
        <path id="Path_6144" data-name="Path 6144" d="M1910.9,1174.2c.3,3.8,4.3,6.6,8.3,6.9,4,.4,7.9-1.1,11.6-2.7a112.3,112.3,0,0,0,35.4-24.5c7-7.2,13.2-15.8,14.2-25.5a15.827,15.827,0,0,0-1.4-9.1,9.371,9.371,0,0,0-7.7-5.1" fill="none" stroke="#003188" stroke-linecap="round" stroke-linejoin="round" stroke-miterlimit="10" stroke-width="7"/>
        <path id="Path_6145" data-name="Path 6145" d="M1865.2,1180.2a166.433,166.433,0,0,1-10.1,21.9" fill="none" stroke="#003188" stroke-linecap="round" stroke-linejoin="round" stroke-miterlimit="10" stroke-width="7"/>
        <path id="Path_6146" data-name="Path 6146" d="M1925.9,1225.2a289.088,289.088,0,0,0,36.9-58.4" fill="none" stroke="#003188" stroke-linecap="round" stroke-linejoin="round" stroke-miterlimit="10" stroke-width="7"/>
        <path id="Path_6147" data-name="Path 6147" d="M1559.2,803.7a642.154,642.154,0,0,1,210.4-133.9" fill="none" stroke="#003188" stroke-linecap="round" stroke-linejoin="round" stroke-miterlimit="10" stroke-width="7"/>
        <path id="Path_6148" data-name="Path 6148" d="M1575,844.2a509.464,509.464,0,0,1,125.6-107.6" fill="none" stroke="#003188" stroke-linecap="round" stroke-linejoin="round" stroke-miterlimit="10" stroke-width="7"/>
        <line id="Line_331" data-name="Line 331" x2="7.4" y2="189.3" transform="translate(1880.2 1169.8)" fill="none" stroke="#003188" stroke-linecap="round" stroke-linejoin="round" stroke-miterlimit="10" stroke-width="7"/>
        <line id="Line_332" data-name="Line 332" x2="22" y2="568.7" transform="translate(1855.2 523.9)" fill="none" stroke="#003188" stroke-linecap="round" stroke-linejoin="round" stroke-miterlimit="10" stroke-width="7"/>
        <line id="Line_333" data-name="Line 333" x2="7.2" y2="186.1" transform="translate(1912.2 1173)" fill="none" stroke="#003188" stroke-linecap="round" stroke-linejoin="round" stroke-miterlimit="10" stroke-width="7"/>
        <line id="Line_334" data-name="Line 334" x2="20.6" y2="529.9" transform="translate(1887 523.9)" fill="none" stroke="#003188" stroke-linecap="round" stroke-linejoin="round" stroke-miterlimit="10" stroke-width="7"/>
        <path id="Path_6149" data-name="Path 6149" d="M1855.2,523.9a22.452,22.452,0,0,1,31.8,0" fill="none" stroke="#003188" stroke-linecap="round" stroke-linejoin="round" stroke-miterlimit="10" stroke-width="7"/>
        <path id="Path_6150" data-name="Path 6150" d="M1887.6,1359.1a22.823,22.823,0,0,0,31.8,0" fill="none" stroke="#003188" stroke-linecap="round" stroke-linejoin="round" stroke-miterlimit="10" stroke-width="7"/>
        <path id="Path_6151" data-name="Path 6151" d="M837.3,1099a109.649,109.649,0,0,1,36.8-51.8" fill="none" stroke="#003188" stroke-linecap="round" stroke-linejoin="round" stroke-miterlimit="10" stroke-width="7"/>
        <g id="Group_1675" data-name="Group 1675">
          <path id="Path_6152" data-name="Path 6152" d="M1134.1,513.1c-35.1-16.2-78.3-6.8-109.4,16.2s-51.6,57.7-66.1,93.6c-14.4,35.5-24.6,74.4-51.7,101.4-25.2,25.1-61.2,35.8-96.3,42s-71.1,9.1-104.1,22.4-63.4,39.9-69.3,75" fill="none" stroke="#003188" stroke-linecap="round" stroke-linejoin="round" stroke-miterlimit="10" stroke-width="7"/>
          <path id="Path_6153" data-name="Path 6153" d="M720.9,832c-50.3,40.7-75.5,110.1-63.1,173.7,5-8.3,9.9-16.5,14.9-24.8-8.2,27.8,1,59.8,22.5,79.1a129.991,129.991,0,0,1,53.5-55.4,102.365,102.365,0,0,0-12.8,73.7" fill="none" stroke="#003188" stroke-linecap="round" stroke-linejoin="round" stroke-miterlimit="10" stroke-width="7"/>
          <path id="Path_6154" data-name="Path 6154" d="M752.7,1081.6a195.581,195.581,0,0,1,44.2-60.9" fill="none" stroke="#003188" stroke-linecap="round" stroke-linejoin="round" stroke-miterlimit="10" stroke-width="7"/>
          <path id="Path_6155" data-name="Path 6155" d="M808.1,1011.5c29.5-25.2,68.6-35.3,103.9-51.3,64.5-29.2,121.4-84.1,134.8-153.7" fill="none" stroke="#003188" stroke-linecap="round" stroke-linejoin="round" stroke-miterlimit="10" stroke-width="7"/>
          <path id="Path_6156" data-name="Path 6156" d="M1073.1,535.2a195.118,195.118,0,0,0-90.5,82.9c-26.9,48.6-33.9,110-75,147.4-23.7,21.5-55.5,31.7-86.8,38-17.5,3.6-35.8,6.4-50.7,16.2" fill="none" stroke="#003188" stroke-linecap="round" stroke-linejoin="round" stroke-miterlimit="10" stroke-width="7"/>
          <path id="Path_6157" data-name="Path 6157" d="M870.5,812.3a178.113,178.113,0,0,0-101.3,84.6" fill="none" stroke="#003188" stroke-linecap="round" stroke-linejoin="round" stroke-miterlimit="10" stroke-width="7"/>
          <path id="Path_6158" data-name="Path 6158" d="M1027.8,757.9a207.062,207.062,0,0,1-89.5,113" fill="none" stroke="#003188" stroke-linecap="round" stroke-linejoin="round" stroke-miterlimit="10" stroke-width="7"/>
          <path id="Path_6159" data-name="Path 6159" d="M919.8,879.2l-7.5,3.3" fill="none" stroke="#003188" stroke-linecap="round" stroke-linejoin="round" stroke-miterlimit="10" stroke-width="7"/>
          <path id="Path_6160" data-name="Path 6160" d="M885.2,567.2c.1.6.1,1.2.2,1.8" fill="none" stroke="#003188" stroke-linecap="round" stroke-linejoin="round" stroke-miterlimit="10" stroke-width="7"/>
        </g>
        <path id="Path_6161" data-name="Path 6161" d="M1449,919.7a2.55,2.55,0,0,0-3,3.4c1.3.1,2.8-.1,3.2-1.3s-2.3-1.5-1.7-.4" fill="none" stroke="#003188" stroke-linecap="round" stroke-linejoin="round" stroke-miterlimit="10" stroke-width="7"/>
        <path id="Path_6162" data-name="Path 6162" d="M607.9,1391.8a6.052,6.052,0,0,0-3.5,4.9,2.172,2.172,0,1,0,1.2-3.4c-.9-.5-1.1,1.5-.1,1.6s1.7-.9,2.1-1.8" fill="none" stroke="#003188" stroke-linecap="round" stroke-linejoin="round" stroke-miterlimit="10" stroke-width="7"/>
        <path id="Path_6163" data-name="Path 6163" d="M1432.3,1605.3c-1.7,1.4-.8,4.7,1.4,5.1,1.9-.5.3-4.2-1.3-3.1" fill="none" stroke="#003188" stroke-linecap="round" stroke-linejoin="round" stroke-miterlimit="10" stroke-width="7"/>
        <path id="Path_6164" data-name="Path 6164" d="M2007.2,1232.7c-1.6-1.1-3.3,2.5-1.5,3.1.9.9,2.9-.2,2.5-1.5-.3-1.3-2.6-1.3-2.9-.1" fill="none" stroke="#003188" stroke-linecap="round" stroke-linejoin="round" stroke-miterlimit="10" stroke-width="7"/>
      </g>
    </g>
  </g>
</svg>
